<svg width="565" height="257" viewBox="0 0 565 257" fill="none" xmlns="http://www.w3.org/2000/svg">
<g filter="url(#filter0_d)">
<g filter="url(#filter1_d)">
<path d="M101 181.5C71.3586 157.384 59.9319 140.438 52 102C78.0005 92.4723 88.5358 84.6923 101 67C113.088 82.2403 124.745 89.6965 150 102C140.922 140.944 129.603 157.734 101 181.5Z" stroke="url(#paint0_linear)" stroke-width="10" stroke-linejoin="round"/>
</g>
<g filter="url(#filter2_d)">
<path d="M101.5 152C91.5187 144.839 87.6709 139.807 85 128.393C93.7553 125.564 97.3029 123.254 101.5 118C105.571 122.526 109.496 124.74 118 128.393C114.943 139.957 111.132 144.943 101.5 152Z" stroke="url(#paint1_linear)" stroke-width="4" stroke-linejoin="round"/>
</g>
<path d="M73 109.5C87.442 105.395 93.0755 100.773 101.5 91C111.281 102.682 117.565 104.554 128 109.5" stroke="url(#paint2_linear)" stroke-width="3" stroke-linejoin="bevel"/>
<path d="M73 118.5C87.442 114.395 93.0755 109.773 101.5 100C111.281 111.682 117.565 113.554 128 118.5" stroke="url(#paint3_linear)" stroke-width="3" stroke-linejoin="bevel"/>
</g>
<g filter="url(#filter3_d)">
<path d="M205.234 112.527C205.234 112.474 204.839 112.369 204.049 112.211C203.259 112 202.285 111.79 201.126 111.579C199.967 111.368 198.809 111.263 197.65 111.263C193.226 111.263 189.829 112.659 187.459 115.45C185.089 118.241 183.904 122.297 183.904 127.616C183.904 132.988 185.115 137.096 187.538 139.94C189.961 142.784 193.331 144.206 197.65 144.206C198.967 144.206 200.204 144.048 201.363 143.732C202.522 143.363 203.443 143.021 204.128 142.705C204.865 142.389 205.234 142.231 205.234 142.231L206.972 135.121L215.504 137.096L212.976 149.025C212.976 149.025 212.318 149.341 211.001 149.973C209.737 150.552 207.946 151.158 205.629 151.79C203.312 152.422 200.652 152.738 197.65 152.738C192.857 152.738 188.618 151.869 184.931 150.131C181.297 148.34 178.453 145.602 176.399 141.915C174.345 138.176 173.318 133.409 173.318 127.616C173.318 122.349 174.319 117.873 176.32 114.186C178.321 110.499 181.139 107.682 184.773 105.733C188.46 103.732 192.726 102.731 197.571 102.731C200.836 102.731 203.628 103.073 205.945 103.758C208.315 104.443 210.106 105.154 211.317 105.891C212.581 106.576 213.213 106.918 213.213 106.918L215.583 118.768L206.972 120.664L205.234 112.527ZM240.419 113.554C246.528 113.554 251.242 115.292 254.56 118.768C257.878 122.191 259.537 126.984 259.537 133.146C259.537 139.255 257.878 144.022 254.56 147.445C251.242 150.868 246.528 152.58 240.419 152.58C234.362 152.58 229.701 150.868 226.436 147.445C223.223 144.022 221.617 139.255 221.617 133.146C221.617 126.984 223.223 122.191 226.436 118.768C229.701 115.292 234.362 113.554 240.419 113.554ZM240.498 121.691C234.441 121.691 231.413 125.509 231.413 133.146C231.413 140.783 234.441 144.601 240.498 144.601C246.66 144.601 249.741 140.783 249.741 133.146C249.741 125.509 246.66 121.691 240.498 121.691Z" fill="#01F0FF"/>
<path d="M287.533 121.691C285.69 121.112 283.846 120.822 282.003 120.822C280.212 120.822 278.632 121.138 277.263 121.77C275.894 122.349 275.209 123.324 275.209 124.693C275.209 125.746 275.525 126.615 276.157 127.3C276.842 127.985 278.395 128.511 280.818 128.88L286.111 129.67C290.114 130.249 293.063 131.408 294.959 133.146C296.855 134.884 297.803 137.307 297.803 140.414C297.803 143.258 297.039 145.602 295.512 147.445C293.985 149.236 292.01 150.552 289.587 151.395C287.164 152.238 284.584 152.659 281.845 152.659C278.738 152.659 276.025 152.343 273.708 151.711C271.443 151.132 269.31 150.263 267.309 149.104L265.887 140.73L274.103 139.466L274.814 143.337C277.026 144.285 279.185 144.759 281.292 144.759C283.399 144.759 285.189 144.417 286.664 143.732C288.191 143.047 288.955 142.02 288.955 140.651C288.955 139.756 288.613 138.966 287.928 138.281C287.243 137.544 285.742 137.043 283.425 136.78L278.606 135.99C274.814 135.358 271.812 134.173 269.6 132.435C267.441 130.644 266.361 128.222 266.361 125.167C266.361 121.691 267.757 118.9 270.548 116.793C273.339 114.686 277.105 113.633 281.845 113.633C284.268 113.633 286.559 113.923 288.718 114.502C290.877 115.081 292.879 116.056 294.722 117.425L296.144 125.088L288.797 126.352L287.533 121.691ZM337.614 146.576C335.191 148.63 332.663 150.131 330.03 151.079C327.449 152.08 324.895 152.58 322.367 152.58C318.259 152.58 314.678 151.764 311.623 150.131C308.568 148.446 306.198 146.155 304.513 143.258C302.88 140.309 302.064 136.964 302.064 133.225C302.064 129.275 302.854 125.825 304.434 122.876C306.014 119.927 308.2 117.636 310.991 116.003C313.782 114.37 317.021 113.554 320.708 113.554C324.553 113.554 327.871 114.318 330.662 115.845C333.506 117.372 335.692 119.505 337.219 122.244C338.799 124.93 339.589 128.116 339.589 131.803C339.589 132.488 339.536 133.278 339.431 134.173C339.378 135.068 339.273 135.911 339.115 136.701H311.623C311.886 139.44 313.045 141.467 315.099 142.784C317.206 144.101 319.628 144.759 322.367 144.759C324.579 144.759 326.712 144.39 328.766 143.653C330.82 142.916 332.69 141.889 334.375 140.572L337.614 146.576ZM329.635 130.065C329.635 127.59 328.871 125.588 327.344 124.061C325.817 122.481 323.71 121.691 321.024 121.691C318.601 121.691 316.495 122.481 314.704 124.061C312.913 125.588 311.965 127.59 311.86 130.065H329.635ZM368.837 121.849C367.099 121.375 365.545 121.138 364.176 121.138C357.856 121.138 354.696 125.246 354.696 133.462C354.696 136.885 355.565 139.598 357.303 141.599C359.041 143.6 361.2 144.601 363.781 144.601C367.415 144.601 371.128 143.232 374.92 140.493L378.949 146.418C376.473 148.367 374.077 149.894 371.76 151C369.442 152.053 366.756 152.58 363.702 152.58C357.803 152.58 353.116 150.974 349.64 147.761C346.216 144.496 344.505 139.729 344.505 133.462C344.505 126.879 346.164 121.902 349.482 118.531C352.8 115.16 357.645 113.475 364.018 113.475C368.178 113.475 372.26 114.239 376.263 115.766L378.475 126.589L370.022 128.406L368.837 121.849ZM417.33 149.262C415.539 150.263 413.591 151.053 411.484 151.632C409.377 152.264 407.402 152.58 405.559 152.58C399.976 152.58 395.895 151.369 393.314 148.946C390.733 146.523 389.443 142.705 389.443 137.491V123.113H383.439V115.134H399.476V136.148C399.476 138.781 399.976 140.704 400.977 141.915C401.978 143.074 403.61 143.653 405.875 143.653C406.928 143.653 408.192 143.469 409.667 143.1C411.194 142.731 412.616 142.284 413.933 141.757V123.113H407.929V115.134H423.966V141.678L430.839 144.048L428.074 152.738L417.33 149.262ZM449.916 118.294C452.233 116.767 454.393 115.634 456.394 114.897C458.395 114.16 460.37 113.791 462.319 113.791C464.32 113.791 466.506 114.239 468.876 115.134L470.219 125.483L461.924 127.221L461.134 122.955C459.343 123.166 457.737 123.534 456.315 124.061C454.893 124.535 453.734 125.141 452.839 125.878L452.76 143.021H460.502V151H436.17V143.021H442.806V124.93L435.222 122.402L437.829 114.344L449.916 118.294ZM509.655 146.576C507.232 148.63 504.704 150.131 502.071 151.079C499.49 152.08 496.936 152.58 494.408 152.58C490.3 152.58 486.719 151.764 483.664 150.131C480.609 148.446 478.239 146.155 476.554 143.258C474.921 140.309 474.105 136.964 474.105 133.225C474.105 129.275 474.895 125.825 476.475 122.876C478.055 119.927 480.241 117.636 483.032 116.003C485.823 114.37 489.062 113.554 492.749 113.554C496.594 113.554 499.912 114.318 502.703 115.845C505.547 117.372 507.733 119.505 509.26 122.244C510.84 124.93 511.63 128.116 511.63 131.803C511.63 132.488 511.577 133.278 511.472 134.173C511.419 135.068 511.314 135.911 511.156 136.701H483.664C483.927 139.44 485.086 141.467 487.14 142.784C489.247 144.101 491.669 144.759 494.408 144.759C496.62 144.759 498.753 144.39 500.807 143.653C502.861 142.916 504.731 141.889 506.416 140.572L509.655 146.576ZM501.676 130.065C501.676 127.59 500.912 125.588 499.385 124.061C497.858 122.481 495.751 121.691 493.065 121.691C490.642 121.691 488.536 122.481 486.745 124.061C484.954 125.588 484.006 127.59 483.901 130.065H501.676Z" fill="#4301FF"/>
</g>
<defs>
<filter id="filter0_d" x="46.9994" y="62" width="116.001" height="132.5" filterUnits="userSpaceOnUse" color-interpolation-filters="sRGB">
<feFlood flood-opacity="0" result="BackgroundImageFix"/>
<feColorMatrix in="SourceAlpha" type="matrix" values="0 0 0 0 0 0 0 0 0 0 0 0 0 0 0 0 0 0 127 0"/>
<feOffset dx="4" dy="4"/>
<feGaussianBlur stdDeviation="2"/>
<feColorMatrix type="matrix" values="0 0 0 0 0 0 0 0 0 0 0 0 0 0 0 0 0 0 0.37 0"/>
<feBlend mode="normal" in2="BackgroundImageFix" result="effect1_dropShadow"/>
<feBlend mode="normal" in="SourceGraphic" in2="effect1_dropShadow" result="shape"/>
</filter>
<filter id="filter1_d" x="42.9994" y="62" width="116.001" height="132.5" filterUnits="userSpaceOnUse" color-interpolation-filters="sRGB">
<feFlood flood-opacity="0" result="BackgroundImageFix"/>
<feColorMatrix in="SourceAlpha" type="matrix" values="0 0 0 0 0 0 0 0 0 0 0 0 0 0 0 0 0 0 127 0"/>
<feOffset dy="4"/>
<feGaussianBlur stdDeviation="2"/>
<feColorMatrix type="matrix" values="0 0 0 0 0 0 0 0 0 0 0 0 0 0 0 0 0 0 0.25 0"/>
<feBlend mode="normal" in2="BackgroundImageFix" result="effect1_dropShadow"/>
<feBlend mode="normal" in="SourceGraphic" in2="effect1_dropShadow" result="shape"/>
</filter>
<filter id="filter2_d" x="78.9997" y="116" width="45.0006" height="46" filterUnits="userSpaceOnUse" color-interpolation-filters="sRGB">
<feFlood flood-opacity="0" result="BackgroundImageFix"/>
<feColorMatrix in="SourceAlpha" type="matrix" values="0 0 0 0 0 0 0 0 0 0 0 0 0 0 0 0 0 0 127 0"/>
<feOffset dy="4"/>
<feGaussianBlur stdDeviation="2"/>
<feColorMatrix type="matrix" values="0 0 0 0 0 0 0 0 0 0 0 0 0 0 0 0 0 0 0.25 0"/>
<feBlend mode="normal" in2="BackgroundImageFix" result="effect1_dropShadow"/>
<feBlend mode="normal" in="SourceGraphic" in2="effect1_dropShadow" result="shape"/>
</filter>
<filter id="filter3_d" x="173.318" y="102.731" width="346.312" height="58.007" filterUnits="userSpaceOnUse" color-interpolation-filters="sRGB">
<feFlood flood-opacity="0" result="BackgroundImageFix"/>
<feColorMatrix in="SourceAlpha" type="matrix" values="0 0 0 0 0 0 0 0 0 0 0 0 0 0 0 0 0 0 127 0"/>
<feOffset dx="4" dy="4"/>
<feGaussianBlur stdDeviation="2"/>
<feColorMatrix type="matrix" values="0 0 0 0 0 0 0 0 0 0 0 0 0 0 0 0 0 0 0.45 0"/>
<feBlend mode="normal" in2="BackgroundImageFix" result="effect1_dropShadow"/>
<feBlend mode="normal" in="SourceGraphic" in2="effect1_dropShadow" result="shape"/>
</filter>
<linearGradient id="paint0_linear" x1="101" y1="67" x2="101" y2="181.5" gradientUnits="userSpaceOnUse">
<stop stop-color="#01F0FF"/>
<stop offset="1" stop-color="#4301FF"/>
</linearGradient>
<linearGradient id="paint1_linear" x1="101.5" y1="118" x2="101.5" y2="152" gradientUnits="userSpaceOnUse">
<stop stop-color="#01F0FF"/>
<stop offset="1" stop-color="#4301FF"/>
</linearGradient>
<linearGradient id="paint2_linear" x1="100.5" y1="91" x2="100.5" y2="109.5" gradientUnits="userSpaceOnUse">
<stop stop-color="#01F0FF"/>
<stop offset="1" stop-color="#4301FF"/>
</linearGradient>
<linearGradient id="paint3_linear" x1="100.5" y1="100" x2="100.5" y2="118.5" gradientUnits="userSpaceOnUse">
<stop stop-color="#01F0FF"/>
<stop offset="1" stop-color="#4301FF"/>
</linearGradient>
</defs>
</svg>
